<svg width="168" height="44" viewBox="0 0 168 44" fill="none" xmlns="http://www.w3.org/2000/svg"><script xmlns=""/>
<g clip-path="url(#clip0_5880_2009)">
<path d="M53.9217 16.0077C53.1296 15.9594 52.3425 16.1641 51.6697 16.5929C51.4025 16.794 51.1891 17.0604 51.0492 17.3675C50.9092 17.6747 50.8471 18.0126 50.8687 18.3506C50.8895 18.7411 51.0071 19.1201 51.2106 19.4516C51.4141 19.7832 51.6968 20.0567 52.0323 20.2464C53.0006 20.8895 54.0408 21.4122 55.1308 21.8034C56.0757 22.1426 56.9785 22.593 57.8213 23.1451C58.5936 23.6791 59.2307 24.392 59.6803 25.2258C60.2089 26.2615 60.464 27.4198 60.4205 28.5865C60.4268 29.7341 60.118 30.8605 59.529 31.8384C58.8982 32.8688 57.9905 33.6929 56.9138 34.2124C55.6292 34.8284 54.2211 35.1295 52.802 35.0913C51.4601 35.0888 50.1257 34.8854 48.8416 34.488C47.5311 34.087 46.295 33.4672 45.1836 32.6536L47.1186 29.1707C47.925 29.7684 48.8107 30.246 49.7491 30.589C50.5972 30.9307 51.4975 31.1186 52.4091 31.1439C53.2533 31.1644 54.0878 30.9563 54.8275 30.5408C55.1623 30.3466 55.4364 30.0597 55.6182 29.7134C55.8 29.3672 55.8821 28.9757 55.855 28.584C55.855 27.4127 54.7768 26.3953 52.6204 25.5319C51.5338 25.1043 50.4736 24.61 49.4457 24.0516C48.5717 23.5539 47.8218 22.8577 47.2538 22.0171C46.6101 21.0338 46.2874 19.8682 46.3319 18.6867C46.2969 17.8084 46.4475 16.9326 46.7735 16.1188C47.0995 15.3049 47.5933 14.572 48.2213 13.9698C49.6145 12.7244 51.4023 12.0346 53.255 12.0277C54.6561 11.9916 56.0539 12.1843 57.3954 12.5982C58.5368 12.9951 59.6237 13.5388 60.63 14.2164L58.9671 17.638C57.4434 16.6776 55.7098 16.1173 53.9217 16.0077Z" fill="#202D3D"/>
<path d="M63.9758 17.7655C64.9705 16.0011 66.3972 14.5301 68.1162 13.4961C69.8314 12.4568 71.7897 11.9082 73.7849 11.9082C75.78 11.9082 77.7383 12.4568 79.4535 13.4961C81.1771 14.5349 82.6128 16.0041 83.6252 17.7655C84.6443 19.5146 85.1821 21.5115 85.1821 23.546C85.1821 25.5805 84.6443 27.5774 83.6252 29.3265C82.6109 31.0702 81.1744 32.5191 79.4535 33.5341C77.7291 34.5541 75.7711 35.0913 73.7777 35.0913C71.7842 35.0913 69.8262 34.5541 68.1019 33.5341C66.3914 32.5207 64.9691 31.0705 63.9749 29.3265C62.975 27.5707 62.4482 25.5765 62.4482 23.546C62.4482 21.5156 62.975 19.5213 63.9749 17.7655H63.9758ZM67.9058 27.1682C68.5002 28.2568 69.3659 29.1659 70.4155 29.8039C71.479 30.4528 72.698 30.7891 73.9374 30.7752C75.1433 30.7875 76.3279 30.4506 77.3537 29.8039C78.3737 29.1649 79.2084 28.2604 79.7721 27.1835C80.353 26.0476 80.6538 24.7846 80.6485 23.5035C80.6432 22.2224 80.3319 20.9618 79.7416 19.8309C79.1613 18.7471 78.3115 17.8381 77.2776 17.1952C76.2305 16.5597 75.0346 16.2241 73.8161 16.2241C72.5976 16.2241 71.4017 16.5597 70.3546 17.1952C69.3207 17.8381 68.4709 18.747 67.8906 19.8309C67.2805 20.9636 66.9682 22.2379 66.9839 23.53C66.9728 24.804 67.2901 26.0587 67.9041 27.1682H67.9058Z" fill="#202D3D"/>
<path d="M101.626 25.3952C102.346 26.294 102.732 27.4231 102.715 28.5834C102.762 29.8421 102.406 31.0823 101.701 32.1163C101.027 33.0517 100.104 33.7695 99.0406 34.1842C97.8882 34.6363 96.6621 34.8612 95.4274 34.8469H88.9277V12.5554H94.5807C96.4169 12.4408 98.2404 12.9328 99.7808 13.9583C100.402 14.4524 100.895 15.0943 101.217 15.8281C101.538 16.5618 101.678 17.3648 101.625 18.1665C101.649 19.2419 101.383 20.3034 100.854 21.2341C100.33 22.1168 99.5696 22.8283 98.6621 23.2842C99.8159 23.708 100.839 24.4364 101.626 25.3952ZM91.8615 22.2931H95.1875C95.6579 22.3281 96.1302 22.2581 96.5713 22.0878C97.0125 21.9176 97.412 21.6512 97.7418 21.3073C98.3319 20.6059 98.6399 19.7028 98.6037 18.7793C98.6387 18.3054 98.5638 17.8297 98.3854 17.3907C98.2069 16.9517 97.9297 16.5616 97.5762 16.252C96.7391 15.6497 95.7258 15.3561 94.7032 15.4195H91.8615V22.2931ZM98.4525 31.1873C98.8577 30.9022 99.1844 30.5158 99.4014 30.0652C99.6185 29.6146 99.7185 29.1148 99.6921 28.6135C99.7227 28.0975 99.6133 27.5829 99.376 27.1262C99.1387 26.6694 98.7826 26.2882 98.3468 26.0242C97.3599 25.4455 96.2349 25.1573 95.097 25.1918H91.8624V32.0671H95.3091C96.4202 32.1129 97.518 31.8069 98.4516 31.1909L98.4525 31.1873Z" fill="#202D3D"/>
<path d="M106.886 18.0405C107.871 16.3176 109.27 14.8798 110.952 13.8632C112.639 12.8443 114.563 12.3066 116.523 12.3066C118.483 12.3066 120.407 12.8443 122.093 13.8632C123.784 14.8788 125.193 16.3163 126.189 18.0405C127.198 19.7531 127.726 21.7152 127.716 23.7129C127.729 25.7186 127.207 27.6903 126.204 29.4164C125.219 31.1407 123.806 32.5706 122.108 33.5628C120.414 34.5736 118.488 35.1093 116.526 35.1153C114.564 35.1213 112.635 34.5972 110.935 33.5966C109.236 32.5961 107.826 31.1547 106.85 29.4187C105.874 27.6827 105.366 25.714 105.377 23.7129C105.366 21.7174 105.888 19.7565 106.886 18.0405ZM109.486 27.9678C110.195 29.2451 111.222 30.3086 112.464 31.0501C113.389 31.6143 114.416 31.9827 115.484 32.1337C116.552 32.2847 117.638 32.215 118.679 31.9288C119.72 31.6426 120.693 31.1456 121.542 30.4676C122.39 29.7896 123.096 28.9445 123.618 27.9825C124.325 26.6715 124.694 25.1992 124.691 23.7032C124.689 22.2072 124.314 20.7363 123.603 19.4278C122.903 18.1405 121.881 17.066 120.64 16.3146C119.398 15.5564 117.976 15.1617 116.528 15.1738C115.079 15.162 113.655 15.5624 112.417 16.3302C111.179 17.0879 110.162 18.168 109.469 19.4596C108.755 20.7696 108.385 22.246 108.396 23.7448C108.386 25.2267 108.763 26.6845 109.486 27.9695V27.9678Z" fill="#202D3D"/>
<path d="M134.669 12.5547V31.9423H145.794V34.8401H131.736V12.5547H134.669Z" fill="#202D3D"/>
<path d="M149.634 12.5546H155.62C157.979 12.4621 160.317 13.0327 162.38 14.2039C164.065 15.1958 165.422 16.6767 166.279 18.458C167.091 20.1743 167.51 22.0561 167.504 23.9615C167.542 25.971 167.029 27.9516 166.022 29.6795C165.071 31.2997 163.701 32.6222 162.062 33.5027C160.405 34.3977 158.556 34.8586 156.681 34.8436H149.637L149.634 12.5546ZM156.103 31.9422C157.599 31.9688 159.08 31.6362 160.426 30.9712C161.669 30.3493 162.704 29.3682 163.404 28.1501C164.116 26.7761 164.485 25.2438 164.477 23.6895C164.469 22.1351 164.085 20.6069 163.359 19.2404C162.65 18.0224 161.618 17.0341 160.381 16.3892C159.142 15.7418 157.768 15.4085 156.376 15.418H152.567V31.9414L156.103 31.9422Z" fill="#202D3D"/>
<path d="M27.7285 18.7485L29.5732 17.3594C31.1265 16.1831 32.1589 14.4265 32.444 12.475C32.7291 10.5236 32.2437 8.53648 31.0941 6.94949C30.5263 6.16179 29.8105 5.49707 28.9884 4.99411C28.1663 4.49115 27.2544 4.16007 26.3056 4.01989C25.942 3.96387 25.5748 3.93499 25.2071 3.93364C23.6504 3.93046 22.1344 4.44098 20.8858 5.38897L14.8863 9.91443C13.6752 9.52338 12.4125 9.32373 11.1422 9.32245C10.74 9.32245 10.3378 9.34235 9.93555 9.38199L18.8832 2.63251C20.0088 1.77904 21.2885 1.1604 22.649 0.811972C24.0094 0.463548 25.4239 0.3922 26.8114 0.602023C28.199 0.811847 29.5323 1.29881 30.735 2.03485C31.9378 2.77088 32.9863 3.74159 33.8207 4.89145C34.655 6.04131 35.2587 7.34762 35.5972 8.73573C35.9357 10.1238 36.0024 11.5663 35.7934 12.9808C35.5844 14.3952 35.1038 15.7539 34.3792 16.9786C33.6546 18.2034 32.7002 19.2703 31.5707 20.1184L30.5567 20.8835L27.7285 18.7485Z" fill="#202D3D"/>
<path d="M25.2183 43.5004C22.9369 43.505 20.7153 42.7562 18.886 41.366L9.92904 34.5968C10.3352 34.6408 10.7433 34.6631 11.1518 34.6639C12.4222 34.6641 13.6851 34.4644 14.8959 34.0719L20.8869 38.5923C22.1362 39.5458 23.6553 40.0598 25.2158 40.0571C25.5809 40.0542 25.9455 40.0253 26.3067 39.9709C27.7344 39.7533 29.0668 39.1089 30.1355 38.1192C31.2041 37.1295 31.961 35.8391 32.3105 34.4108C32.66 32.9825 32.5863 31.4805 32.0988 30.0949C31.6113 28.7093 30.7319 27.5023 29.5717 26.6263L15.4806 15.976C14.2276 15.0248 12.7063 14.5127 11.1442 14.5162C10.9594 14.5111 10.7745 14.5218 10.5915 14.5482C10.1809 14.5813 9.77351 14.6473 9.37304 14.7455C8.20957 15.0472 7.13657 15.6357 6.24832 16.4592C5.36006 17.2827 4.68375 18.3161 4.2788 19.4685C3.87386 20.621 3.75267 21.8572 3.9259 23.0686C4.09914 24.2799 4.56148 25.4294 5.2723 26.416C6.27693 27.8156 7.73253 28.81 9.38403 29.225C9.60457 29.281 9.82849 29.3275 10.06 29.3628C10.1625 29.3589 10.265 29.3686 10.3651 29.3914L10.6743 29.4154C10.8366 29.4154 10.9954 29.4474 11.1543 29.4474C12.7118 29.4488 14.2283 28.9385 15.479 27.992L21.9584 23.1012L24.7899 25.2356L17.4824 30.758C16.7169 31.3337 15.8791 31.802 14.9914 32.1504C14.797 32.2297 14.6044 32.3003 14.4379 32.3597C14.2715 32.4192 14.0509 32.4822 13.838 32.5322C12.3914 32.919 10.8811 32.9907 9.40556 32.7426C7.93 32.4945 6.52223 31.9321 5.27398 31.0922L4.85148 30.7691C3.71307 29.9238 2.75069 28.8563 2.02019 27.6285C1.28968 26.4008 0.805622 25.0373 0.596118 23.6172C0.572459 23.4673 0.564838 23.3527 0.553853 23.2225V23.0296C0.368505 21.1626 0.663473 19.2784 1.40968 17.563C2.15588 15.8476 3.32757 14.3601 4.80924 13.2471L5.28496 12.892C6.57742 12.0159 8.04333 11.4412 9.57839 11.2084C10.11 11.1285 10.6465 11.0875 11.1839 11.0859C12.0859 11.0893 12.9838 11.2086 13.8566 11.441C14.0577 11.4979 14.2436 11.5522 14.4565 11.6186C14.644 11.6775 14.8284 11.7457 15.0092 11.8235C15.895 12.1736 16.7315 12.6418 17.4968 13.2159L31.5887 23.8663C33.2867 25.1466 34.5736 26.9124 35.2861 28.9395C35.9986 30.9667 36.1047 33.164 35.591 35.2527C35.0772 37.3415 33.9667 39.2276 32.4003 40.6718C30.8339 42.1161 28.8821 43.0534 26.7925 43.365C26.2665 43.4468 25.7352 43.4878 25.2031 43.4874L25.2183 43.5004Z" fill="#202D3D"/>
</g>
<defs>
<clipPath id="clip0_5880_2009">
<rect width="167" height="43" fill="white" transform="translate(0.5 0.5)"/>
</clipPath>
</defs>
</svg>